<svg width="24" height="24" viewBox="0 0 24 24"  xmlns="http://www.w3.org/2000/svg">
<path d="M14.026 8.0353L5.62605 16.2853C5.48577 16.4233 5.29688 16.5006 5.10011 16.5006C4.90334 16.5006 4.71445 16.4233 4.57417 16.2853L0.974175 12.75C0.903938 12.6809 0.847993 12.5987 0.809533 12.508C0.771074 12.4173 0.750853 12.3199 0.750026 12.2214C0.749199 12.1229 0.767782 12.0252 0.804713 11.9339C0.841644 11.8426 0.896201 11.7594 0.965268 11.6892C1.03434 11.619 1.11656 11.563 1.20725 11.5246C1.29794 11.4861 1.39531 11.4659 1.49381 11.4651C1.59232 11.4642 1.69002 11.4828 1.78134 11.5197C1.87266 11.5567 1.95581 11.6112 2.02605 11.6803L5.10011 14.6991L12.9751 6.96468C13.1171 6.82519 13.3087 6.74782 13.5077 6.74957C13.6062 6.75044 13.7036 6.77072 13.7943 6.80923C13.8851 6.84775 13.9673 6.90375 14.0364 6.97405C14.1054 7.04435 14.16 7.12757 14.1969 7.21894C14.2338 7.31032 14.2523 7.40807 14.2515 7.50662C14.2506 7.60517 14.2303 7.70258 14.1918 7.79329C14.1533 7.884 14.0973 7.96624 14.027 8.0353H14.026ZM23.0354 6.97405C22.9664 6.9037 22.8842 6.84765 22.7934 6.8091C22.7027 6.77055 22.6053 6.75026 22.5067 6.74939C22.4082 6.74852 22.3104 6.76708 22.219 6.80402C22.1276 6.84097 22.0444 6.89556 21.9742 6.96468L14.0992 14.6991L12.3339 12.9647C12.1919 12.8253 12.0004 12.7481 11.8014 12.7499C11.6025 12.7518 11.4124 12.8325 11.2731 12.9745C11.1337 13.1165 11.0565 13.308 11.0583 13.507C11.0602 13.7059 11.141 13.8959 11.2829 14.0353L13.5732 16.2853C13.7135 16.4233 13.9024 16.5006 14.0992 16.5006C14.2959 16.5006 14.4848 16.4233 14.6251 16.2853L23.0251 8.0353C23.0955 7.96633 23.1516 7.88415 23.1903 7.79347C23.2289 7.70279 23.2493 7.60538 23.2502 7.50682C23.2512 7.40825 23.2327 7.31047 23.1959 7.21905C23.159 7.12764 23.1045 7.04438 23.0354 6.97405Z" fill="currentColor"/>
</svg>
