<svg width="24" height="24" viewBox="0 0 24 24" fill="none" xmlns="http://www.w3.org/2000/svg">
<path d="M11.9997 7.50001C11.1097 7.50001 10.2396 7.76393 9.49962 8.2584C8.7596 8.75287 8.18283 9.45567 7.84223 10.2779C7.50164 11.1002 7.41252 12.005 7.58616 12.8779C7.75979 13.7508 8.18837 14.5527 8.81771 15.182C9.44705 15.8113 10.2489 16.2399 11.1218 16.4135C11.9947 16.5872 12.8995 16.4981 13.7218 16.1575C14.544 15.8169 15.2468 15.2401 15.7413 14.5001C16.2358 13.7601 16.4997 12.89 16.4997 12C16.4984 10.8069 16.0239 9.66305 15.1803 8.8194C14.3367 7.97576 13.1928 7.50125 11.9997 7.50001ZM11.9997 15C11.4063 15 10.8263 14.8241 10.333 14.4944C9.83963 14.1648 9.45511 13.6962 9.22805 13.1481C9.00099 12.5999 8.94158 11.9967 9.05733 11.4147C9.17309 10.8328 9.45881 10.2983 9.87837 9.87869C10.2979 9.45914 10.8325 9.17341 11.4144 9.05766C11.9964 8.9419 12.5996 9.00131 13.1477 9.22837C13.6959 9.45544 14.1645 9.83995 14.4941 10.3333C14.8237 10.8266 14.9997 11.4067 14.9997 12C14.9997 12.7957 14.6836 13.5587 14.121 14.1213C13.5584 14.6839 12.7953 15 11.9997 15ZM22.3066 10.051C22.2857 9.94534 22.2423 9.84546 22.1794 9.7581C22.1164 9.67075 22.0354 9.59796 21.9419 9.5447L19.1453 7.95095L19.1341 4.79907C19.1337 4.69053 19.1098 4.58334 19.064 4.48493C19.0182 4.38652 18.9516 4.29922 18.8688 4.22908C17.8543 3.37098 16.6861 2.71339 15.4263 2.29126C15.327 2.25768 15.2219 2.24525 15.1176 2.25478C15.0133 2.26431 14.9121 2.29558 14.8206 2.34658L11.9997 3.92345L9.17594 2.34376C9.0844 2.29248 8.98311 2.26097 8.87863 2.25128C8.77414 2.24159 8.66879 2.25394 8.56938 2.28751C7.31045 2.71272 6.14359 3.37282 5.13063 4.23283C5.04791 4.30287 4.98136 4.39002 4.93556 4.48826C4.88975 4.5865 4.86579 4.6935 4.86532 4.80189L4.85125 7.95658L2.05469 9.55033C1.96113 9.60359 1.88013 9.67637 1.8172 9.76373C1.75428 9.85108 1.71089 9.95096 1.69 10.0566C1.43406 11.3427 1.43406 12.6667 1.69 13.9528C1.71089 14.0584 1.75428 14.1583 1.8172 14.2457C1.88013 14.333 1.96113 14.4058 2.05469 14.4591L4.85125 16.0528L4.8625 19.2047C4.86284 19.3132 4.88674 19.4204 4.93255 19.5188C4.97835 19.6173 5.04498 19.7045 5.12782 19.7747C6.14226 20.6328 7.31046 21.2904 8.57031 21.7125C8.66953 21.7461 8.77468 21.7585 8.87899 21.749C8.98329 21.7395 9.08445 21.7082 9.17594 21.6572L11.9997 20.0766L14.8234 21.6563C14.9352 21.7185 15.0611 21.7508 15.1891 21.75C15.271 21.75 15.3523 21.7367 15.43 21.7106C16.6888 21.286 17.8556 20.6265 18.8688 19.7672C18.9515 19.6972 19.018 19.61 19.0638 19.5118C19.1096 19.4135 19.1336 19.3065 19.1341 19.1981L19.1481 16.0435L21.9447 14.4497C22.0383 14.3964 22.1192 14.3237 22.1822 14.2363C22.2451 14.1489 22.2885 14.0491 22.3094 13.9434C22.5639 12.6583 22.5629 11.3357 22.3066 10.051ZM20.9003 13.3238L18.2219 14.8472C18.1045 14.9139 18.0074 15.0111 17.9406 15.1285C17.8863 15.2222 17.8291 15.3216 17.7709 15.4153C17.6965 15.5335 17.6569 15.6703 17.6566 15.81L17.6425 18.8335C16.9226 19.3988 16.1205 19.8509 15.2641 20.1741L12.5622 18.6685C12.45 18.6064 12.3238 18.5741 12.1956 18.5747H12.1778C12.0644 18.5747 11.95 18.5747 11.8366 18.5747C11.7024 18.5713 11.5697 18.6037 11.4522 18.6685L8.74844 20.1778C7.89017 19.8571 7.0859 19.4073 6.36344 18.8438L6.35313 15.825C6.35266 15.685 6.31305 15.548 6.23875 15.4294C6.18063 15.3356 6.12344 15.2419 6.07 15.1425C6.00374 15.0233 5.90659 14.9242 5.78875 14.8556L3.1075 13.3285C2.96875 12.4508 2.96875 11.5568 3.1075 10.6791L5.78125 9.15283C5.89861 9.0861 5.99577 8.98893 6.0625 8.87158C6.11688 8.77783 6.17407 8.67845 6.23219 8.5847C6.30659 8.46648 6.34623 8.3297 6.34656 8.19001L6.36063 5.16657C7.08056 4.60121 7.88262 4.14912 8.73907 3.82595L11.4372 5.33157C11.5546 5.39667 11.6874 5.42904 11.8216 5.42532C11.935 5.42532 12.0494 5.42532 12.1628 5.42532C12.297 5.42868 12.4296 5.39632 12.5472 5.33157L15.2509 3.8222C16.1092 4.14289 16.9135 4.59277 17.6359 5.15626L17.6463 8.17501C17.6467 8.31498 17.6863 8.45202 17.7606 8.57064C17.8188 8.66439 17.8759 8.75814 17.9294 8.85751C17.9956 8.97668 18.0928 9.07578 18.2106 9.14439L20.8919 10.6716C21.0325 11.5499 21.0341 12.4449 20.8966 13.3238H20.9003Z" fill="currentColor"/>
</svg>
