<svg width="24" height="24" viewBox="0 0 24 24" fill="none" xmlns="http://www.w3.org/2000/svg">
<path d="M22.3066 10.0509C22.2857 9.94534 22.2423 9.84546 22.1794 9.7581C22.1164 9.67075 22.0354 9.59796 21.9419 9.5447L19.1453 7.95095L19.1341 4.79907C19.1337 4.69053 19.1098 4.58334 19.064 4.48493C19.0182 4.38652 18.9516 4.29922 18.8688 4.22907C17.8543 3.37098 16.6861 2.71339 15.4263 2.29126C15.327 2.25768 15.2219 2.24525 15.1176 2.25478C15.0133 2.26431 14.9121 2.29558 14.8206 2.34658L11.9997 3.92345L9.17594 2.34376C9.0844 2.29248 8.98311 2.26097 8.87863 2.25128C8.77414 2.24159 8.66879 2.25394 8.56938 2.28751C7.31029 2.71235 6.14335 3.37249 5.13063 4.23283C5.04791 4.30287 4.98136 4.39002 4.93556 4.48826C4.88975 4.5865 4.86579 4.6935 4.86532 4.80189L4.85125 7.95657L2.05469 9.55032C1.96113 9.60359 1.88013 9.67637 1.8172 9.76373C1.75428 9.85108 1.71089 9.95096 1.69 10.0566C1.43406 11.3427 1.43406 12.6667 1.69 13.9528C1.71089 14.0584 1.75428 14.1583 1.8172 14.2457C1.88013 14.333 1.96113 14.4058 2.05469 14.4591L4.85125 16.0528L4.8625 19.2056C4.86284 19.3142 4.88674 19.4214 4.93255 19.5198C4.97835 19.6182 5.04498 19.7055 5.12782 19.7756C6.14226 20.6337 7.31046 21.2913 8.57031 21.7134C8.66953 21.747 8.77468 21.7595 8.87899 21.7499C8.98329 21.7404 9.08445 21.7091 9.17594 21.6581L11.9997 20.0766L14.8234 21.6563C14.9352 21.7185 15.0611 21.7508 15.1891 21.75C15.271 21.75 15.3523 21.7367 15.43 21.7106C16.6888 21.286 17.8556 20.6265 18.8688 19.7672C18.9515 19.6972 19.018 19.61 19.0638 19.5118C19.1096 19.4135 19.1336 19.3065 19.1341 19.1981L19.1481 16.0434L21.9447 14.4497C22.0383 14.3964 22.1192 14.3237 22.1822 14.2363C22.2451 14.1489 22.2885 14.0491 22.3094 13.9434C22.5639 12.6583 22.5629 11.3357 22.3066 10.0509ZM11.9997 15.75C11.258 15.75 10.533 15.5301 9.9163 15.118C9.29962 14.706 8.81897 14.1203 8.53514 13.4351C8.25131 12.7499 8.17705 11.9959 8.32174 11.2684C8.46644 10.541 8.82359 9.87281 9.34804 9.34836C9.87249 8.82392 10.5407 8.46676 11.2681 8.32207C11.9955 8.17737 12.7495 8.25164 13.4348 8.53546C14.12 8.81929 14.7056 9.29994 15.1177 9.91662C15.5298 10.5333 15.7497 11.2583 15.7497 12C15.7497 12.9946 15.3546 13.9484 14.6513 14.6517C13.9481 15.3549 12.9943 15.75 11.9997 15.75Z" fill="currentColor"/>
</svg>
