<svg width="24" height="24" viewBox="0 0 24 24"  xmlns="http://www.w3.org/2000/svg">
<path d="M12 3.31029V12C12 12.1989 11.921 12.3897 11.7803 12.5303C11.6397 12.671 11.4489 12.75 11.25 12.75C11.0511 12.75 10.8603 12.671 10.7197 12.5303C10.579 12.3897 10.5 12.1989 10.5 12V3.31029L8.78063 5.0306C8.71094 5.10029 8.62822 5.15556 8.53717 5.19327C8.44613 5.23099 8.34855 5.2504 8.25 5.2504C8.05098 5.2504 7.86011 5.17134 7.71937 5.0306C7.64969 4.96092 7.59442 4.8782 7.5567 4.78715C7.51899 4.69611 7.49958 4.59853 7.49958 4.49998C7.49958 4.30096 7.57864 4.11009 7.71937 3.96935L10.7194 0.969355C10.789 0.899622 10.8717 0.844303 10.9628 0.80656C11.0538 0.768817 11.1514 0.74939 11.25 0.74939C11.3486 0.74939 11.4462 0.768817 11.5372 0.80656C11.6283 0.844303 11.711 0.899622 11.7806 0.969355L14.7806 3.96935C14.9214 4.11009 15.0004 4.30096 15.0004 4.49998C15.0004 4.699 14.9214 4.88987 14.7806 5.0306C14.6399 5.17134 14.449 5.2504 14.25 5.2504C14.051 5.2504 13.8601 5.17134 13.7194 5.0306L12 3.31029ZM18 11.5894V8.99998C18 8.60216 17.842 8.22062 17.5607 7.93932C17.2794 7.65802 16.8978 7.49998 16.5 7.49998H15C14.8011 7.49998 14.6103 7.579 14.4697 7.71965C14.329 7.8603 14.25 8.05107 14.25 8.24998C14.25 8.44889 14.329 8.63966 14.4697 8.78031C14.6103 8.92096 14.8011 8.99998 15 8.99998H16.5V16.5375C16.0527 16.0806 15.4541 15.8026 14.8164 15.7558C14.1788 15.709 13.5459 15.8965 13.0367 16.2831C12.5275 16.6698 12.1769 17.229 12.0508 17.8558C11.9246 18.4826 12.0316 19.1339 12.3516 19.6875L12.3741 19.7231L14.4609 22.9106C14.5698 23.0771 14.7404 23.1935 14.9351 23.2342C15.1298 23.2749 15.3328 23.2365 15.4992 23.1276C15.6657 23.0187 15.7821 22.8482 15.8228 22.6534C15.8635 22.4587 15.8252 22.2558 15.7162 22.0894L13.6416 18.9215C13.4945 18.6618 13.4566 18.3543 13.5363 18.0667C13.6159 17.7791 13.8065 17.5349 14.0662 17.3878C14.326 17.2407 14.6334 17.2028 14.9211 17.2825C15.2087 17.3621 15.4529 17.5528 15.6 17.8125C15.6066 17.8247 15.6141 17.8369 15.6216 17.8481L16.6228 19.3772C16.7113 19.5121 16.841 19.615 16.9926 19.6704C17.1442 19.7257 17.3096 19.7308 17.4643 19.6846C17.619 19.6385 17.7546 19.5437 17.8512 19.4144C17.9477 19.285 17.9999 19.1279 18 18.9665V13.5C18.7069 14.1544 19.2715 14.9473 19.6586 15.8294C20.0457 16.7115 20.247 17.6639 20.25 18.6272V22.5C20.25 22.6989 20.329 22.8897 20.4697 23.0303C20.6103 23.171 20.8011 23.25 21 23.25C21.1989 23.25 21.3897 23.171 21.5303 23.0303C21.671 22.8897 21.75 22.6989 21.75 22.5V18.6234C21.7458 17.2341 21.4018 15.8668 20.7482 14.6408C20.0946 13.4148 19.1512 12.3673 18 11.5894ZM7.5 7.49998H6C5.60218 7.49998 5.22064 7.65802 4.93934 7.93932C4.65804 8.22062 4.5 8.60216 4.5 8.99998V18.75C4.5 18.9489 4.57902 19.1397 4.71967 19.2803C4.86032 19.421 5.05109 19.5 5.25 19.5C5.44891 19.5 5.63968 19.421 5.78033 19.2803C5.92098 19.1397 6 18.9489 6 18.75V8.99998H7.5C7.69891 8.99998 7.88968 8.92096 8.03033 8.78031C8.17098 8.63966 8.25 8.44889 8.25 8.24998C8.25 8.05107 8.17098 7.8603 8.03033 7.71965C7.88968 7.579 7.69891 7.49998 7.5 7.49998Z" fill="currentColor"/>
</svg>
