<svg width="24" height="24" viewBox="0 0 24 24"  xmlns="http://www.w3.org/2000/svg">
<path d="M21 12V19.5C21 19.8978 20.842 20.2794 20.5607 20.5607C20.2794 20.842 19.8978 21 19.5 21H4.5C4.10218 21 3.72064 20.842 3.43934 20.5607C3.15804 20.2794 3 19.8978 3 19.5V4.50001C3 4.10219 3.15804 3.72065 3.43934 3.43935C3.72064 3.15805 4.10218 3.00001 4.5 3.00001H12C12.1989 3.00001 12.3897 3.07903 12.5303 3.21968C12.671 3.36033 12.75 3.5511 12.75 3.75001C12.75 3.94892 12.671 4.13969 12.5303 4.28034C12.3897 4.42099 12.1989 4.50001 12 4.50001H4.5V19.5H19.5V12C19.5 11.8011 19.579 11.6103 19.7197 11.4697C19.8603 11.329 20.0511 11.25 20.25 11.25C20.4489 11.25 20.6397 11.329 20.7803 11.4697C20.921 11.6103 21 11.8011 21 12ZM21.5306 6.53064L12.5306 15.5306C12.4609 15.6003 12.3782 15.6555 12.2871 15.6931C12.1961 15.7308 12.0985 15.7501 12 15.75H9C8.80109 15.75 8.61032 15.671 8.46967 15.5303C8.32902 15.3897 8.25 15.1989 8.25 15V12C8.24992 11.9015 8.26926 11.8039 8.3069 11.7129C8.34454 11.6218 8.39975 11.5391 8.46937 11.4694L17.4694 2.46939C17.539 2.39965 17.6217 2.34433 17.7128 2.30659C17.8038 2.26885 17.9014 2.24942 18 2.24942C18.0986 2.24942 18.1962 2.26885 18.2872 2.30659C18.3783 2.34433 18.461 2.39965 18.5306 2.46939L21.5306 5.46938C21.6004 5.53904 21.6557 5.62176 21.6934 5.71281C21.7312 5.80385 21.7506 5.90145 21.7506 6.00001C21.7506 6.09857 21.7312 6.19617 21.6934 6.28722C21.6557 6.37826 21.6004 6.46098 21.5306 6.53064ZM19.9369 6.00001L18 4.06032L16.8103 5.25001L18.75 7.1897L19.9369 6.00001Z" fill="currentColor"/>
</svg>
