<svg width="24" height="24" viewBox="0 0 24 24" fill="none" xmlns="http://www.w3.org/2000/svg">
<path d="M12 7.49999C11.11 7.49999 10.24 7.76391 9.49993 8.25837C8.75991 8.75284 8.18314 9.45564 7.84254 10.2779C7.50195 11.1002 7.41283 12.005 7.58647 12.8779C7.7601 13.7508 8.18868 14.5526 8.81802 15.182C9.44736 15.8113 10.2492 16.2399 11.1221 16.4135C11.995 16.5872 12.8998 16.498 13.7221 16.1574C14.5443 15.8169 15.2471 15.2401 15.7416 14.5001C16.2361 13.76 16.5 12.89 16.5 12C16.4985 10.807 16.0239 9.66324 15.1803 8.81965C14.3367 7.97606 13.193 7.50147 12 7.49999ZM12 15C11.4067 15 10.8266 14.824 10.3333 14.4944C9.83994 14.1648 9.45542 13.6962 9.22836 13.148C9.0013 12.5999 8.94189 11.9967 9.05764 11.4147C9.1734 10.8328 9.45912 10.2982 9.87868 9.87867C10.2982 9.45911 10.8328 9.17339 11.4147 9.05763C11.9967 8.94187 12.5999 9.00129 13.1481 9.22835C13.6962 9.45541 14.1648 9.83993 14.4944 10.3333C14.8241 10.8266 15 11.4066 15 12C15 12.7956 14.6839 13.5587 14.1213 14.1213C13.5587 14.6839 12.7956 15 12 15ZM20.97 6.20155L12.72 1.68749C12.4996 1.56569 12.2518 1.5018 12 1.5018C11.7482 1.5018 11.5004 1.56569 11.28 1.68749L3.03 6.20342C2.7944 6.33233 2.59772 6.52214 2.46052 6.75301C2.32331 6.98388 2.25061 7.24736 2.25 7.51592V16.4822C2.25061 16.7507 2.32331 17.0142 2.46052 17.2451C2.59772 17.476 2.7944 17.6658 3.03 17.7947L11.28 22.3106C11.5004 22.4324 11.7482 22.4963 12 22.4963C12.2518 22.4963 12.4996 22.4324 12.72 22.3106L20.97 17.7947C21.2056 17.6658 21.4023 17.476 21.5395 17.2451C21.6767 17.0142 21.7494 16.7507 21.75 16.4822V7.51686C21.7499 7.24782 21.6774 6.98376 21.5402 6.75234C21.403 6.52093 21.206 6.33069 20.97 6.20155ZM12 21L3.75 16.4831V7.51686L12 2.99999L20.25 7.51592V16.4822L12 21Z" fill="currentColor"/>
</svg>
