<svg width="24" height="24" viewBox="0 0 24 24"  xmlns="http://www.w3.org/2000/svg">
<g clip-path="url(#clip0_4208_19931)">
<path d="M7.87529 11.25C7.87529 10.4341 8.11722 9.63662 8.57048 8.95827C9.02374 8.27991 9.66798 7.7512 10.4217 7.43899C11.1755 7.12678 12.0049 7.04509 12.805 7.20426C13.6052 7.36342 14.3402 7.75629 14.9171 8.33318C15.494 8.91007 15.8869 9.64507 16.046 10.4452C16.2052 11.2454 16.1235 12.0748 15.8113 12.8286C15.4991 13.5823 14.9704 14.2265 14.292 14.6798C13.6137 15.1331 12.8161 15.375 12.0003 15.375C10.9063 15.375 9.85706 14.9404 9.08348 14.1668C8.30989 13.3932 7.87529 12.344 7.87529 11.25ZM19.7028 16.6106C19.5357 16.5136 19.3382 16.483 19.1496 16.5249C18.961 16.5667 18.795 16.678 18.6847 16.8366C18.5231 17.0592 18.3503 17.2735 18.1672 17.4787C17.6215 16.6868 16.9282 16.0075 16.1253 15.4781C16.0568 15.4327 15.9753 15.4111 15.8934 15.4165C15.8114 15.4219 15.7334 15.4541 15.6715 15.5081C14.6527 16.3897 13.3504 16.875 12.0031 16.875C10.6558 16.875 9.35351 16.3897 8.33467 15.5081C8.27233 15.4528 8.19332 15.4198 8.11012 15.4143C8.02693 15.4089 7.9443 15.4313 7.87529 15.4781C7.07219 16.0065 6.37858 16.6848 5.83248 17.4759C4.66122 16.1607 3.94346 14.504 3.78498 12.75H5.22873C5.35013 12.7519 5.47025 12.725 5.57927 12.6716C5.68828 12.6181 5.78308 12.5396 5.85592 12.4425C5.96159 12.298 6.01212 12.1205 5.99837 11.9421C5.98461 11.7636 5.90748 11.5959 5.78092 11.4694L3.53092 9.21937C3.46126 9.14964 3.37855 9.09432 3.2875 9.05657C3.19645 9.01883 3.09885 8.9994 3.00029 8.9994C2.90173 8.9994 2.80414 9.01883 2.71309 9.05657C2.62204 9.09432 2.53932 9.14964 2.46967 9.21937L0.219667 11.4694C0.0931004 11.5959 0.0159731 11.7636 0.00221867 11.9421C-0.0115358 12.1205 0.0389896 12.298 0.144667 12.4425C0.217499 12.5396 0.312304 12.6181 0.421319 12.6716C0.530334 12.725 0.650458 12.7519 0.771855 12.75H2.27842C2.43181 14.744 3.19465 16.6425 4.46352 18.1883C5.73238 19.7341 7.4459 20.8523 9.37175 21.3913C11.2976 21.9303 13.3426 21.8641 15.2296 21.2016C17.1165 20.5391 18.7541 19.3124 19.9203 17.6878C19.9805 17.604 20.0227 17.5088 20.0444 17.4079C20.0661 17.3071 20.0667 17.2029 20.0463 17.1018C20.0259 17.0007 19.9849 16.9049 19.9258 16.8204C19.8667 16.7359 19.7907 16.6645 19.7028 16.6106ZM23.9431 11.7131C23.8864 11.5761 23.7903 11.4589 23.6669 11.3765C23.5436 11.294 23.3986 11.25 23.2503 11.25H21.7222C21.5688 9.25602 20.8059 7.35745 19.5371 5.81168C18.2682 4.2659 16.5547 3.1477 14.6288 2.60867C12.703 2.06964 10.658 2.13586 8.77102 2.79835C6.88408 3.46084 5.2465 4.68756 4.08029 6.31218C3.96418 6.4738 3.91702 6.67492 3.94919 6.87131C3.98137 7.06769 4.09024 7.24325 4.25185 7.35937C4.41347 7.47548 4.61459 7.52264 4.81098 7.49047C5.00737 7.45829 5.18293 7.34942 5.29904 7.18781C6.28021 5.82172 7.65547 4.78816 9.24054 4.22563C10.8256 3.66309 12.5447 3.59847 14.1676 4.04041C15.7904 4.48235 17.2394 5.40974 18.3203 6.6983C19.4013 7.98687 20.0626 9.57504 20.2156 11.25H18.7503C18.6019 11.2499 18.4568 11.2938 18.3333 11.3762C18.2099 11.4586 18.1136 11.5758 18.0568 11.7129C18 11.85 17.9852 12.0009 18.0141 12.1465C18.0431 12.292 18.1147 12.4257 18.2197 12.5306L20.4697 14.7806C20.5393 14.8504 20.622 14.9057 20.7131 14.9434C20.8041 14.9812 20.9017 15.0006 21.0003 15.0006C21.0989 15.0006 21.1964 14.9812 21.2875 14.9434C21.3785 14.9057 21.4613 14.8504 21.5309 14.7806L23.7809 12.5306C23.8858 12.4257 23.9571 12.292 23.986 12.1465C24.0149 12.001 24 11.8501 23.9431 11.7131Z" fill="currentColor"/>
</g>
<defs>
<clipPath id="clip0_4208_19931">
<rect width="24" height="24" fill="white"/>
</clipPath>
</defs>
</svg>
