<svg width="24" height="24" viewBox="0 0 24 24" fill="none" xmlns="http://www.w3.org/2000/svg">
<g clip-path="url(#clip0_4208_16300)">
<path d="M14.2503 7.49999C14.2503 7.30108 14.3293 7.11031 14.47 6.96966C14.6107 6.82901 14.8014 6.74999 15.0003 6.74999H23.2503C23.4492 6.74999 23.64 6.82901 23.7807 6.96966C23.9213 7.11031 24.0003 7.30108 24.0003 7.49999C24.0003 7.6989 23.9213 7.88967 23.7807 8.03032C23.64 8.17097 23.4492 8.24999 23.2503 8.24999H15.0003C14.8014 8.24999 14.6107 8.17097 14.47 8.03032C14.3293 7.88967 14.2503 7.6989 14.2503 7.49999ZM23.2503 11.25H15.0003C14.8014 11.25 14.6107 11.329 14.47 11.4697C14.3293 11.6103 14.2503 11.8011 14.2503 12C14.2503 12.1989 14.3293 12.3897 14.47 12.5303C14.6107 12.671 14.8014 12.75 15.0003 12.75H23.2503C23.4492 12.75 23.64 12.671 23.7807 12.5303C23.9213 12.3897 24.0003 12.1989 24.0003 12C24.0003 11.8011 23.9213 11.6103 23.7807 11.4697C23.64 11.329 23.4492 11.25 23.2503 11.25ZM23.2503 15.75H17.2503C17.0514 15.75 16.8607 15.829 16.72 15.9697C16.5793 16.1103 16.5003 16.3011 16.5003 16.5C16.5003 16.6989 16.5793 16.8897 16.72 17.0303C16.8607 17.171 17.0514 17.25 17.2503 17.25H23.2503C23.4492 17.25 23.64 17.171 23.7807 17.0303C23.9213 16.8897 24.0003 16.6989 24.0003 16.5C24.0003 16.3011 23.9213 16.1103 23.7807 15.9697C23.64 15.829 23.4492 15.75 23.2503 15.75ZM14.2269 17.8125C14.2514 17.9079 14.2569 18.0072 14.243 18.1047C14.2291 18.2023 14.1962 18.2961 14.1461 18.3809C14.0959 18.4657 14.0295 18.5398 13.9508 18.5989C13.872 18.6581 13.7823 18.7011 13.6869 18.7256C13.6258 18.7421 13.5627 18.7503 13.4994 18.75C13.3331 18.7501 13.1714 18.6949 13.0399 18.593C12.9084 18.4912 12.8144 18.3485 12.7728 18.1875C12.1953 15.9431 9.92845 14.25 7.49939 14.25C5.07033 14.25 2.80345 15.9422 2.22595 18.1875C2.17623 18.3802 2.05199 18.5452 1.88057 18.6463C1.70915 18.7474 1.50459 18.7763 1.31189 18.7266C1.1192 18.6768 0.954146 18.5526 0.853052 18.3812C0.751958 18.2097 0.723101 18.0052 0.772829 17.8125C1.29689 15.7772 2.82033 14.1291 4.75345 13.3125C4.00911 12.7392 3.46288 11.9473 3.19138 11.0478C2.91987 10.1483 2.93671 9.18645 3.23953 8.29704C3.54235 7.40763 4.11596 6.63532 4.87991 6.0884C5.64387 5.54149 6.55985 5.24741 7.49939 5.24741C8.43894 5.24741 9.35492 5.54149 10.1189 6.0884C10.8828 6.63532 11.4564 7.40763 11.7593 8.29704C12.0621 9.18645 12.0789 10.1483 11.8074 11.0478C11.5359 11.9473 10.9897 12.7392 10.2453 13.3125C12.1794 14.1291 13.7028 15.7772 14.2269 17.8125ZM7.50033 12.75C8.09367 12.75 8.67369 12.574 9.16704 12.2444C9.66039 11.9148 10.0449 11.4462 10.272 10.898C10.499 10.3499 10.5584 9.74666 10.4427 9.16472C10.3269 8.58278 10.0412 8.04823 9.62165 7.62867C9.20209 7.20911 8.66754 6.92339 8.0856 6.80763C7.50366 6.69188 6.90046 6.75129 6.35228 6.97835C5.8041 7.20541 5.33556 7.58993 5.00592 8.08328C4.67628 8.57663 4.50033 9.15665 4.50033 9.74999C4.50033 10.5456 4.8164 11.3087 5.37901 11.8713C5.94162 12.4339 6.70468 12.75 7.50033 12.75Z" fill="currentColor"/>
</g>
<defs>
<clipPath id="clip0_4208_16300">
<rect width="24" height="24" fill="white"/>
</clipPath>
</defs>
</svg>
